<svg width="16" height="16" viewBox="0 0 16 16" fill="none" xmlns="http://www.w3.org/2000/svg">
<path d="M1.46967 5.46934C1.17678 5.76224 1.17678 6.23711 1.46967 6.53C1.76256 6.8229 2.23744 6.8229 2.53033 6.53L1.46967 5.46934ZM4.66667 3.33301L5.197 2.80268C4.9041 2.50978 4.42923 2.50978 4.13634 2.80268L4.66667 3.33301ZM6.803 6.53C7.0959 6.8229 7.57077 6.8229 7.86366 6.53C8.15656 6.23711 8.15656 5.76224 7.86366 5.46934L6.803 6.53ZM5.41667 3.33301C5.41667 2.91879 5.08088 2.58301 4.66667 2.58301C4.25245 2.58301 3.91667 2.91879 3.91667 3.33301H5.41667ZM3.91667 12.6663C3.91667 13.0806 4.25245 13.4163 4.66667 13.4163C5.08088 13.4163 5.41667 13.0806 5.41667 12.6663H3.91667ZM2.53033 6.53L5.197 3.86334L4.13634 2.80268L1.46967 5.46934L2.53033 6.53ZM4.13634 3.86334L6.803 6.53L7.86366 5.46934L5.197 2.80268L4.13634 3.86334ZM3.91667 3.33301V12.6663H5.41667V3.33301H3.91667Z" fill="#B8C6D9"/>
<path d="M14.5307 10.53C14.8235 10.2371 14.8235 9.76224 14.5307 9.46934C14.2378 9.17645 13.7629 9.17645 13.47 9.46934L14.5307 10.53ZM11.3337 12.6663L10.8033 13.1967C10.944 13.3373 11.1347 13.4163 11.3337 13.4163C11.5326 13.4163 11.7233 13.3373 11.864 13.1967L11.3337 12.6663ZM9.19732 9.46934C8.90443 9.17645 8.42956 9.17645 8.13666 9.46934C7.84377 9.76224 7.84377 10.2371 8.13666 10.53L9.19732 9.46934ZM10.5837 12.6663C10.5837 13.0806 10.9194 13.4163 11.3337 13.4163C11.7479 13.4163 12.0837 13.0806 12.0837 12.6663H10.5837ZM12.0837 3.33301C12.0837 2.91879 11.7479 2.58301 11.3337 2.58301C10.9194 2.58301 10.5837 2.91879 10.5837 3.33301H12.0837ZM13.47 9.46934L10.8033 12.136L11.864 13.1967L14.5307 10.53L13.47 9.46934ZM11.864 12.136L9.19732 9.46934L8.13666 10.53L10.8033 13.1967L11.864 12.136ZM12.0837 12.6663V3.33301H10.5837V12.6663H12.0837Z" fill="#B8C6D9"/>
</svg>
