<svg width="8" height="12" viewBox="0 0 8 12" fill="none" xmlns="http://www.w3.org/2000/svg">
<path d="M7.53066 8.53C7.82355 8.23711 7.82355 7.76224 7.53066 7.46934C7.23776 7.17645 6.76289 7.17645 6.47 7.46934L7.53066 8.53ZM4.33366 10.6663L3.80333 11.1967C3.94398 11.3373 4.13475 11.4163 4.33366 11.4163C4.53257 11.4163 4.72334 11.3373 4.86399 11.1967L4.33366 10.6663ZM2.19732 7.46934C1.90443 7.17645 1.42956 7.17645 1.13666 7.46934C0.843769 7.76224 0.843769 8.23711 1.13666 8.53L2.19732 7.46934ZM3.58366 10.6663C3.58366 11.0806 3.91945 11.4163 4.33366 11.4163C4.74787 11.4163 5.08366 11.0806 5.08366 10.6663H3.58366ZM5.08366 1.33301C5.08366 0.918794 4.74787 0.583008 4.33366 0.583008C3.91945 0.583008 3.58366 0.918794 3.58366 1.33301H5.08366ZM6.47 7.46934L3.80333 10.136L4.86399 11.1967L7.53066 8.53L6.47 7.46934ZM4.86399 10.136L2.19732 7.46934L1.13666 8.53L3.80333 11.1967L4.86399 10.136ZM5.08366 10.6663V1.33301H3.58366V10.6663H5.08366Z" fill="#B8C6D9"/>
</svg>
