<svg width="8" height="12" viewBox="0 0 8 12" fill="none" xmlns="http://www.w3.org/2000/svg">
<path d="M0.46967 3.46934C0.176777 3.76224 0.176777 4.23711 0.46967 4.53C0.762563 4.8229 1.23744 4.8229 1.53033 4.53L0.46967 3.46934ZM3.66667 1.33301L4.197 0.802678C3.9041 0.509785 3.42923 0.509785 3.13634 0.802678L3.66667 1.33301ZM5.803 4.53C6.0959 4.8229 6.57077 4.8229 6.86366 4.53C7.15656 4.23711 7.15656 3.76224 6.86366 3.46934L5.803 4.53ZM4.41667 1.33301C4.41667 0.918794 4.08088 0.583008 3.66667 0.583008C3.25245 0.583008 2.91667 0.918794 2.91667 1.33301H4.41667ZM2.91667 10.6663C2.91667 11.0806 3.25245 11.4163 3.66667 11.4163C4.08088 11.4163 4.41667 11.0806 4.41667 10.6663H2.91667ZM1.53033 4.53L4.197 1.86334L3.13634 0.802678L0.46967 3.46934L1.53033 4.53ZM3.13634 1.86334L5.803 4.53L6.86366 3.46934L4.197 0.802678L3.13634 1.86334ZM2.91667 1.33301V10.6663H4.41667V1.33301H2.91667Z" fill="#B8C6D9"/>
</svg>
